<?xml version="1.0" encoding="UTF-8"?>
<svg version="1.1" xmlns="http://www.w3.org/2000/svg" width="373" height="373">
<path d="M0 0 C28.38 0 56.76 0 86 0 C86.3125 29.125 86.3125 29.125 86.38793945 38.29345703 C86.42023191 40.69825797 86.45360598 43.10304474 86.48828125 45.5078125 C86.49452515 46.75103271 86.50076904 47.99425293 86.50720215 49.27514648 C86.53711243 51.07085083 86.53711243 51.07085083 86.56762695 52.90283203 C86.57873001 53.93763702 86.58983307 54.97244202 86.60127258 56.03860474 C87.19118597 60.41996061 88.70988356 63.83083198 92 66.8125 C98.05205878 70.4059099 105.94017556 69.58031153 112.625 68.3125 C115.10434691 67.19338385 115.10434691 67.19338385 116.25 65 C116.4975 64.01 116.745 63.02 117 62 C117.19464844 61.33226562 117.38929688 60.66453125 117.58984375 59.9765625 C119.19563405 53.6583549 118.84813056 47.98615878 118.296875 41.53515625 C117.30359383 28.42204973 116.80737267 14.02041658 119 1 C120.90848214 -0.90848214 124.3263892 -0.15789468 126.85546875 -0.17700195 C127.93127953 -0.18685875 127.93127953 -0.18685875 129.02882385 -0.19691467 C131.41505022 -0.21670669 133.80121323 -0.22832843 136.1875 -0.23828125 C137.00279175 -0.24235678 137.8180835 -0.2464323 138.65808105 -0.25063133 C142.98022206 -0.27152553 147.30233107 -0.28580794 151.62451172 -0.29516602 C156.07532665 -0.30618714 160.5256356 -0.34052695 164.97627258 -0.38033772 C168.40798827 -0.40658946 171.83958557 -0.41486581 175.27139282 -0.41844749 C176.91072982 -0.423298 178.55006208 -0.43486792 180.18930054 -0.45348549 C192.06377909 -0.57987387 201.18123663 0.38632415 210 9 C211.98 11.97 211.98 11.97 214 15 C214.33 10.05 214.66 5.1 215 0 C223.32495777 -1.61064072 231.87891804 -3.1235891 240 0 C246.77492548 6.29739215 250.43597439 15.14344167 254.25439453 23.41162109 C257.07395845 29.20769807 260.45542972 34.6189296 264 40 C264.73488647 41.14021606 264.73488647 41.14021606 265.48461914 42.3034668 C267.28260181 44.31638473 268.4178431 44.46607369 271 45 C270.99777939 44.45098526 270.99555878 43.90197052 270.99327087 43.33631897 C270.97121642 37.64292041 270.95609274 31.9495339 270.94506836 26.25610352 C270.94002702 24.12881986 270.93319409 22.00153969 270.92456055 19.87426758 C270.91248621 16.82372174 270.90676986 13.77322155 270.90234375 10.72265625 C270.89718246 9.76537125 270.89202118 8.80808624 270.88670349 7.8217926 C270.88659019 6.50053627 270.88659019 6.50053627 270.88647461 5.15258789 C270.884254 4.37315323 270.88203339 3.59371857 270.87974548 2.79066467 C271 1 271 1 272 0 C273.56172745 -0.08685603 275.12729344 -0.10702219 276.69140625 -0.09765625 C277.63564453 -0.09443359 278.57988281 -0.09121094 279.55273438 -0.08789062 C280.54595703 -0.07951172 281.53917969 -0.07113281 282.5625 -0.0625 C283.55958984 -0.05798828 284.55667969 -0.05347656 285.58398438 -0.04882812 C288.05604849 -0.03700007 290.52799518 -0.02051849 293 0 C293.02312241 11.45650016 293.04091457 22.91299481 293.05181217 34.36951351 C293.05704122 39.68865213 293.06413927 45.00777484 293.07543945 50.3269043 C293.08626755 55.45563985 293.09227667 60.58436006 293.09487724 65.71310616 C293.09673163 67.67441614 293.10035251 69.63572524 293.10573006 71.59702873 C293.11293946 74.33415447 293.11399099 77.07121597 293.11352539 79.80834961 C293.11712067 80.62761932 293.12071594 81.44688904 293.12442017 82.29098511 C293.11405216 87.88594784 293.11405216 87.88594784 292 89 C284.55676757 90.51848016 276.34060103 91.19333934 269 89 C263.65880909 85.04893027 261.07317003 78.67775083 258.34033203 72.79785156 C256.53037384 69.01968746 254.42643628 65.44671045 252.30541992 61.83666992 C250.83751277 59.33655055 249.40440293 56.82052247 247.984375 54.29296875 C244.35558112 47.84333474 240.67610189 41.42274143 237 35 C237.00222061 35.66176743 237.00444122 36.32353485 237.00672913 37.00535583 C237.02877965 43.8666022 237.04390562 50.72783857 237.05493164 57.58911133 C237.0599737 60.15291757 237.06680714 62.71672091 237.07543945 65.28051758 C237.08751064 68.95655021 237.09322942 72.63254498 237.09765625 76.30859375 C237.10281754 77.46274277 237.10797882 78.61689178 237.11329651 79.80601501 C237.11337204 80.86703934 237.11344757 81.92806366 237.11352539 83.02124023 C237.115746 83.96055893 237.11796661 84.89987762 237.12025452 85.86766052 C237 88 237 88 236 89 C234.64905018 89.09268999 233.29332909 89.11747326 231.93920898 89.11352539 C231.07839218 89.11344986 230.21757538 89.11337433 229.33067322 89.11329651 C228.39526199 89.10813522 227.45985077 89.10297394 226.49609375 89.09765625 C225.54307877 89.0962413 224.59006378 89.09482635 223.60816956 89.09336853 C220.55124835 89.08775152 217.49439923 89.07519616 214.4375 89.0625 C212.37044376 89.05748719 210.30338638 89.05292391 208.23632812 89.04882812 C203.15752412 89.03777656 198.0787743 89.02050055 193 89 C191.75595756 84.93394551 190.75272269 81.19442864 190.5859375 76.94140625 C190.54726562 76.06162109 190.50859375 75.18183594 190.46875 74.27539062 C190.42234375 72.93250977 190.42234375 72.93250977 190.375 71.5625 C190.33632812 70.64017578 190.29765625 69.71785156 190.2578125 68.76757812 C190.16431324 66.51190857 190.0785609 64.25623084 190 62 C189.34 62 188.68 62 188 62 C188 61.34 188 60.68 188 60 C180.08 59.67 172.16 59.34 164 59 C164.01160156 61.08183594 164.02320313 63.16367188 164.03515625 65.30859375 C164.04210735 67.31746298 164.04902389 69.32633251 164.05493164 71.33520508 C164.0599708 72.73495228 164.06680216 74.1346942 164.07543945 75.53442383 C164.0875232 77.54245777 164.09269807 79.55052957 164.09765625 81.55859375 C164.10289307 82.76829834 164.10812988 83.97800293 164.11352539 85.22436523 C164 88 164 88 163 89 C161.43827255 89.08685603 159.87270656 89.10702219 158.30859375 89.09765625 C157.36435547 89.09443359 156.42011719 89.09121094 155.44726562 89.08789062 C154.45404297 89.07951172 153.46082031 89.07113281 152.4375 89.0625 C151.44041016 89.05798828 150.44332031 89.05347656 149.41601562 89.04882812 C146.94395151 89.03700007 144.47200482 89.02051849 142 89 C141.18566759 80.63878007 140.87804738 72.40118031 141 64 C140.78085938 64.556875 140.56171875 65.11375 140.3359375 65.6875 C135.67150813 76.91246825 129.85224198 83.27051808 118.54296875 88.03515625 C107.78090916 91.58944628 93.85045866 91.90852174 83.390625 87.3203125 C74.10802745 82.19364915 67.43833309 75.15493284 64 65 C63.78528516 62.65094002 63.66882284 60.29196335 63.62109375 57.93359375 C63.60409927 57.25885513 63.5871048 56.58411652 63.56959534 55.88893127 C63.51676903 53.73854872 63.47640985 51.58817548 63.4375 49.4375 C64.56434769 33.58039128 64.56434769 33.58039128 61 20 C58.11747355 19.83976438 55.25621473 19.74045971 52.37109375 19.68359375 C51.50686295 19.66281265 50.64263214 19.64203156 49.75221252 19.62062073 C46.98072555 19.55502886 44.20914079 19.49619582 41.4375 19.4375 C39.56314077 19.39432392 37.68879157 19.35070994 35.81445312 19.30664062 C31.20973434 19.19851032 26.60494559 19.09950917 22 19 C22 25.93 22 32.86 22 40 C34.21 40 46.42 40 59 40 C59 45.94 59 51.88 59 58 C46.79 58 34.58 58 22 58 C22.03959728 67.82803025 22.03959728 67.82803025 22.09008789 77.65600586 C22.09258545 78.87167236 22.09508301 80.08733887 22.09765625 81.33984375 C22.10551147 83.21724243 22.10551147 83.21724243 22.11352539 85.13256836 C22 88 22 88 21 89 C19.43827255 89.08685603 17.87270656 89.10702219 16.30859375 89.09765625 C15.36435547 89.09443359 14.42011719 89.09121094 13.44726562 89.08789062 C12.45404297 89.07951172 11.46082031 89.07113281 10.4375 89.0625 C9.44041016 89.05798828 8.44332031 89.05347656 7.41601562 89.04882812 C4.94395151 89.03700007 2.47200482 89.02051849 0 89 C-0.15493825 79.61076347 -0.30309684 70.22145009 -0.4429636 60.83197689 C-0.50813761 56.47052655 -0.57551307 52.10913496 -0.64819336 47.74780273 C-0.71844928 43.52681464 -0.78256515 39.30577119 -0.84269524 35.08462715 C-0.8664871 33.48653429 -0.89236934 31.88847092 -0.92053413 30.29044914 C-0.96006769 28.02562961 -0.99167038 25.76081235 -1.02172852 23.49584961 C-1.04171402 22.21455673 -1.06169952 20.93326385 -1.08229065 19.61314392 C-0.96551008 13.06652454 -0.43554392 6.53315885 0 0 Z M164 19 C164 25.93 164 32.86 164 40 C167.01125 40.061875 170.0225 40.12375 173.125 40.1875 C174.06230957 40.21481201 174.99961914 40.24212402 175.96533203 40.27026367 C181.03442691 40.32046876 184.6927035 39.98558714 189 37 C191.7726633 33.08942286 191.67843057 28.61332787 191 24 C189.05171591 21.00263986 187.87596759 20.19920347 184.40625 19.41015625 C180.28663525 18.91410172 176.26821203 18.89221242 172.125 18.9375 C169.44375 18.958125 166.7625 18.97875 164 19 Z M214 36 C212.46393011 37.977575 211.02430099 40.01618103 209.5703125 42.0546875 C208 44 208 44 205 46 C205.57498407 49.3260548 206.5129935 50.69201206 208.9765625 52.94140625 C213.39303684 57.8845313 213.12200221 63.58002695 213.375 69.9375 C213.44332031 71.09830078 213.51164063 72.25910156 213.58203125 73.45507812 C213.74610897 76.30299852 213.8846521 79.14975976 214 82 C214.33 82 214.66 82 215 82 C215 66.82 215 51.64 215 36 C214.67 36 214.34 36 214 36 Z " fill="#E3DCC9" transform="translate(40,187)"/>
<path d="M0 0 C11.06534858 -0.02312283 22.13069145 -0.04091478 33.19605923 -0.05181217 C38.33359566 -0.05704113 43.47111563 -0.06413901 48.60864258 -0.07543945 C53.5623141 -0.08626787 58.51596974 -0.09227674 63.46965218 -0.09487724 C65.36397616 -0.09673157 67.25829924 -0.10035234 69.1526165 -0.10573006 C71.79634386 -0.11293989 74.44000471 -0.11399097 77.08374023 -0.11352539 C77.87495773 -0.11712067 78.66617523 -0.12071594 79.48136902 -0.12442017 C84.88594784 -0.11405216 84.88594784 -0.11405216 86 1 C86.0942174 3.11681317 86.11742761 5.23680758 86.11352539 7.35571289 C86.11367142 8.01910172 86.11381744 8.68249054 86.1139679 9.36598206 C86.11326881 11.56823956 86.10547665 13.77041345 86.09765625 15.97265625 C86.09579206 17.49580336 86.09436816 19.01895107 86.09336853 20.542099 C86.08954346 24.55837651 86.07971328 28.57461808 86.06866455 32.59088135 C86.0566555 37.40579739 86.05204814 42.22072544 86.04621124 47.03565216 C86.03650151 54.35712647 86.01734491 61.67852185 86 69 C97.22 69 108.44 69 120 69 C120.06058594 64.10285156 120.12117188 59.20570313 120.18359375 54.16015625 C120.22406797 51.06574597 120.26483087 47.97134494 120.30664062 44.87695312 C120.37303833 39.96072452 120.43834147 35.04449783 120.49731445 30.12817383 C120.54490313 26.16646874 120.59724367 22.20485282 120.65294075 18.24325371 C120.67338931 16.72854253 120.69209817 15.21380688 120.70907402 13.69905281 C120.73306299 11.58451574 120.7631245 9.47014865 120.79467773 7.35571289 C120.81022202 6.14992081 120.8257663 4.94412872 120.84178162 3.70179749 C121 1 121 1 122 0 C124.37300869 -0.09494733 126.71678703 -0.12559319 129.09008789 -0.11352539 C129.83150528 -0.11367142 130.57292267 -0.11381744 131.33680725 -0.1139679 C133.79878621 -0.11326865 136.26069043 -0.10547574 138.72265625 -0.09765625 C140.42516539 -0.09579211 142.12767507 -0.09436819 143.83018494 -0.09336853 C148.31993073 -0.08954302 152.80964438 -0.07971247 157.29937744 -0.06866455 C161.87731491 -0.05845113 166.45525756 -0.05387106 171.03320312 -0.04882812 C180.02214957 -0.03809022 189.01107212 -0.02101341 198 0 C199.91904891 3.49869876 201.83480021 6.99919295 203.75 10.5 C204.28882813 11.48226562 204.82765625 12.46453125 205.3828125 13.4765625 C208.36655611 18.93463008 211.26073504 24.41509085 214 30 C214.44915771 29.12674072 214.89831543 28.25348145 215.36108398 27.35375977 C217.02338913 24.12311357 218.68819007 20.89375912 220.35375977 17.66479492 C221.07514829 16.26540845 221.79585369 14.86566961 222.51586914 13.46557617 C223.5491611 11.4565949 224.58487952 9.44888147 225.62109375 7.44140625 C225.94403915 6.81222794 226.26698456 6.18304962 226.59971619 5.5348053 C228.88612829 1.11387171 228.88612829 1.11387171 230 0 C231.63472882 -0.08700342 233.27314055 -0.10701063 234.91015625 -0.09765625 C235.89951172 -0.09443359 236.88886719 -0.09121094 237.90820312 -0.08789062 C238.94912109 -0.07951172 239.99003906 -0.07113281 241.0625 -0.0625 C242.62967773 -0.05573242 242.62967773 -0.05573242 244.22851562 -0.04882812 C246.8190666 -0.03699913 249.40950559 -0.02051689 252 0 C250.82733523 3.51799431 250.24165446 3.67396881 247.125 5.375 C242.91493496 7.88296361 241.00771683 10.25168136 239.3125 14.875 C238.30590735 21.71983005 239.23831049 26.29784241 243 32 C244.80368656 34.15515439 246.65744599 36.21664049 248.609375 38.23828125 C250 40 250 40 250 43 C248.2421875 44.359375 248.2421875 44.359375 245.875 45.75 C240.54786498 49.11937089 236.03476616 52.89570151 234 59 C233.36842493 66.66173033 233.04205316 72.86780259 238 79 C243.32895948 83.19513832 248.336749 85.07024405 255 86 C255 86.99 255 87.98 255 89 C251.08372337 89.14522934 247.16813847 89.23404757 243.25 89.3125 C242.13882813 89.35439453 241.02765625 89.39628906 239.8828125 89.43945312 C231.67649112 89.5630423 231.67649112 89.5630423 228.484375 86.90625 C227.99453125 85.9471875 227.5046875 84.988125 227 84 C226.01 82.38158203 226.01 82.38158203 225 80.73046875 C224.3281495 79.55242047 223.66160896 78.3713304 223 77.1875 C222.65259766 76.57165039 222.30519531 75.95580078 221.94726562 75.32128906 C215 62.93221594 215 62.93221594 215 60 C214.34 60 213.68 60 213 60 C212.83455688 60.82443604 212.83455688 60.82443604 212.66577148 61.66552734 C211.87265194 64.44653544 210.6847681 66.78667219 209.34765625 69.3515625 C208.81849609 70.36734375 208.28933594 71.383125 207.74414062 72.4296875 C207.18919922 73.48414063 206.63425781 74.53859375 206.0625 75.625 C205.51142578 76.6871875 204.96035156 77.749375 204.39257812 78.84375 C200.2570615 86.7429385 200.2570615 86.7429385 198 89 C195.33486224 89.22317441 192.77019299 89.32188926 190.10180664 89.3347168 C189.28301025 89.34636871 188.46421387 89.35802063 187.62060547 89.37002563 C184.88380961 89.40627385 182.1471072 89.42801843 179.41015625 89.44921875 C177.47577701 89.4705245 175.54140499 89.49249412 173.60704041 89.51509094 C169.51532472 89.56069284 165.4236178 89.59936524 161.33178711 89.63305664 C156.22711675 89.6754322 151.12275362 89.73240728 146.01828957 89.79447746 C118.65732112 90.1203627 91.34991645 89.83096946 64 89 C63.83135602 86.16028724 63.66570298 83.3204508 63.50170898 80.48046875 C63.43050968 79.28931458 63.43050968 79.28931458 63.35787201 78.07409668 C62.93636038 70.70394763 62.96405864 63.38162568 63.0625 56 C63.13829288 45.93660032 62.82734347 36.14397172 61.4375 26.17578125 C61 23 61 23 61 20 C41.695 19.505 41.695 19.505 22 19 C22 25.93 22 32.86 22 40 C34.21 40 46.42 40 59 40 C59 45.94 59 51.88 59 58 C55.33701257 59.22099581 52.06979302 59.01998953 48.26953125 58.87890625 C47.51911057 58.85529526 46.76868988 58.83168427 45.99552917 58.80735779 C43.60098781 58.73084327 41.20677987 58.64676674 38.8125 58.5625 C37.1881673 58.50926706 35.56381838 58.45652674 33.93945312 58.40429688 C29.95942466 58.27524473 25.97967856 58.13941046 22 58 C22.00785522 59.35532837 22.00785522 59.35532837 22.01586914 60.73803711 C22.03287686 64.07951489 22.04543333 67.42094692 22.05493164 70.76245117 C22.05997101 72.21070073 22.06680253 73.65894517 22.07543945 75.10717773 C22.08752247 77.18474588 22.09323211 79.26224697 22.09765625 81.33984375 C22.10551147 83.21724243 22.10551147 83.21724243 22.11352539 85.13256836 C22 88 22 88 21 89 C18.22311455 89.26558947 15.47081108 89.46948221 12.6875 89.625 C11.91470703 89.6765625 11.14191406 89.728125 10.34570312 89.78125 C9.59611328 89.82507813 8.84652344 89.86890625 8.07421875 89.9140625 C7.38932373 89.9548291 6.70442871 89.9955957 5.9987793 90.03759766 C3.86112161 89.99738765 2.04809849 89.59302894 0 89 C-0.96739602 85.75083011 -1.12665209 82.8184542 -1.12939453 79.43481445 C-1.13254669 78.31456375 -1.13569885 77.19431305 -1.13894653 76.04011536 C-1.1369223 74.8267601 -1.13489807 73.61340485 -1.1328125 72.36328125 C-1.13376923 71.09647018 -1.13472595 69.82965912 -1.13571167 68.52445984 C-1.13639325 65.82852814 -1.13504427 63.13268645 -1.13037109 60.43676758 C-1.12588869 57.72483109 -1.12572751 55.01296157 -1.13037109 52.30102539 C-1.15827966 34.84207324 -0.87106543 17.43832741 0 0 Z M143 19 C143 23.95 143 28.9 143 34 C154.88 34 166.76 34 179 34 C179 39.94 179 45.88 179 52 C167.12 52 155.24 52 143 52 C143 57.94 143 63.88 143 70 C148.55898882 70.30000078 154.0897234 70.55777769 159.65039062 70.71411133 C161.5367764 70.77924271 163.42251172 70.86778972 165.30664062 70.98071289 C175.42568823 72.00216646 175.42568823 72.00216646 184.61300659 68.76968384 C187.64501764 65.27647215 189.24829519 61.25613653 191 57 C192.14597653 55.16096485 193.32625061 53.34210669 194.5625 51.5625 C196.42040121 48.78771249 197.0139827 47.51106755 196.921875 44.14453125 C195.80299347 40.3280074 193.92770116 37.35805832 191.6875 34.125 C188.33332008 29.20700967 185.69556715 24.3911343 183 19 C169.8 19 156.6 19 143 19 Z " fill="#E3DCC9" transform="translate(40,95)"/>
<path d="M0 0 C5.32796553 0.45344387 8.38061453 5.08932217 11.8125 8.75 C12.51826172 9.46671875 13.22402344 10.1834375 13.95117188 10.921875 C14.94407227 11.97375 14.94407227 11.97375 15.95703125 13.046875 C16.56522705 13.68463867 17.17342285 14.32240234 17.80004883 14.97949219 C19 17 19 17 18.69018555 19.74707031 C18.3485437 20.86227051 18.3485437 20.86227051 18 22 C17.01 22.33 16.02 22.66 15 23 C14.67 23.66 14.34 24.32 14 25 C-0.61020553 25.59319631 -0.61020553 25.59319631 -6 22 C-8.38909207 17.81908888 -8.25982003 13.77235485 -7.6171875 9.1171875 C-6.65068391 5.80171315 -4.63291023 4.11917165 -2 2 C-1.34 1.34 -0.68 0.68 0 0 Z " fill="#E3DCC9" transform="translate(296,145)"/>
<path d="M0 0 C0.99 0 1.98 0 3 0 C3.495 18.315 3.495 18.315 4 37 C0.01378963 36.00344741 -0.72076844 35.64333961 -3.3828125 32.875 C-3.99253906 32.25109375 -4.60226562 31.6271875 -5.23046875 30.984375 C-5.85566406 30.32953125 -6.48085938 29.6746875 -7.125 29 C-8.3754538 27.70625147 -9.62796248 26.41448494 -10.8828125 25.125 C-11.43340332 24.55007812 -11.98399414 23.97515625 -12.55126953 23.3828125 C-13.97103318 21.89195722 -13.97103318 21.89195722 -16 21 C-15.68173011 17.93208692 -15.45824926 16.42062459 -13.14453125 14.296875 C-12.37496094 13.78640625 -11.60539062 13.2759375 -10.8125 12.75 C-6.44442517 9.60415279 -3.94334199 6.37152589 -1.2890625 1.72265625 C-0.65097656 0.86994141 -0.65097656 0.86994141 0 0 Z " fill="#E3DCC9" transform="translate(329,121)"/>
<path d="M0 0 C1.85530793 2.78296189 2.31398164 4.92445506 2.14453125 8.26953125 C1.14944226 12.42197027 -1.29825093 15.54809397 -4.375 18.4375 C-7.25 19.4375 -7.25 19.4375 -9.375 19.4375 C-10.35669476 18.31470538 -11.33527298 17.18918527 -12.3125 16.0625 C-12.85777344 15.43601562 -13.40304687 14.80953125 -13.96484375 14.1640625 C-16.52679713 11.02726639 -16.71145252 8.44790521 -16.66015625 4.41015625 C-16.375 2.4375 -16.375 2.4375 -14.625 0 C-9.78134026 -3.3636526 -5.00817994 -3.29485522 0 0 Z " fill="#E3DCC9" transform="translate(309.375,108.5625)"/>
<path d="" fill="#E3DCC9" transform="translate(0,0)"/>
</svg>
