<?xml version="1.0" encoding="UTF-8"?>
<svg version="1.1" xmlns="http://www.w3.org/2000/svg" width="249" height="249">
<path d="M0 0 C0.66 0 1.32 0 2 0 C2 3.2102068 1.60833693 5.32187878 -0.56640625 7.74609375 C-3.34108473 10.18411848 -6.14304898 12.44066373 -9.23828125 14.4609375 C-13.37677631 17.19975873 -15.39732978 18.90521871 -16.5 23.875 C-16.69904374 25.24568755 -16.87736671 26.62037547 -17 28 C-16.01 27.896875 -15.02 27.79375 -14 27.6875 C-9.18269331 27.66787757 -5.65016284 30.02113147 -2 33 C0.49375321 36.74062981 0.57870113 39.66901246 0 44 C-0.90559486 46.79013707 -2.17133503 49.29759729 -3.5625 51.875 C-3.92529053 52.56899902 -4.28808105 53.26299805 -4.66186523 53.97802734 C-9.07481367 62.25723834 -13.89932008 70.82403112 -22 76 C-24.9375 76.875 -24.9375 76.875 -27 77 C-26.95359375 77.65226562 -26.9071875 78.30453125 -26.859375 78.9765625 C-26.61427648 84.91144818 -26.83622695 88.41984965 -31 93 C-35.96660231 97.45163202 -44.08792828 104 -51 104 C-51.495 104.99 -51.495 104.99 -52 106 C-52.99 106 -53.98 106 -55 106 C-55.495 106.99 -55.495 106.99 -56 108 C-58.5625 108.625 -58.5625 108.625 -61 109 C-61 108.01 -61 107.02 -61 106 C-59.94087402 105.44070801 -59.94087402 105.44070801 -58.86035156 104.87011719 C-55.65285965 103.17091644 -52.45142525 101.46060136 -49.25 99.75 C-48.13882813 99.16347656 -47.02765625 98.57695312 -45.8828125 97.97265625 C-44.81289062 97.39902344 -43.74296875 96.82539063 -42.640625 96.234375 C-41.65610352 95.71069336 -40.67158203 95.18701172 -39.65722656 94.64746094 C-36.08183263 92.43074298 -33.47875627 90.49046764 -32.171875 86.421875 C-32.03265625 85.54015625 -31.8934375 84.6584375 -31.75 83.75 C-31.60046875 82.85796875 -31.4509375 81.9659375 -31.296875 81.046875 C-31.19890625 80.37140625 -31.1009375 79.6959375 -31 79 C-32.55460937 79.05220703 -32.55460937 79.05220703 -34.140625 79.10546875 C-35.51040042 79.13361482 -36.88019341 79.16091411 -38.25 79.1875 C-38.93191406 79.21263672 -39.61382812 79.23777344 -40.31640625 79.26367188 C-43.47285278 79.30963954 -45.65463431 79.18893211 -48.44921875 77.66015625 C-50 76 -50 76 -50.5625 73.25 C-49.98333356 69.90370499 -49.57622798 69.30066567 -47.4921875 66.8671875 C-43.89924329 62.01776787 -44.45286575 57.2989619 -44.63867188 51.49609375 C-44.61460461 45.78733965 -44.61460461 45.78733965 -42.69873047 43.33300781 C-38.83445857 40 -38.83445857 40 -36 40 C-36 39.34 -36 38.68 -36 38 C-35.4225 37.7525 -34.845 37.505 -34.25 37.25 C-31.89279141 36.08272842 -31.89279141 36.08272842 -30.0625 34 C-27.81991276 31.82536995 -25.93780321 30.97926774 -23 30 C-23.00902344 29.443125 -23.01804688 28.88625 -23.02734375 28.3125 C-22.79882842 22.43071413 -21.32557945 19.2112796 -17.24609375 14.99609375 C-5.99804305 5 -5.99804305 5 -2 5 C-1.855625 4.360625 -1.71125 3.72125 -1.5625 3.0625 C-1 1 -1 1 0 0 Z M-32 41 C-35.89095156 45.53944349 -35.2973787 50.32777661 -35 56 C-32.86252256 56.23221954 -32.86252256 56.23221954 -31.37890625 54.42578125 C-24.27955946 46.38958782 -24.27955946 46.38958782 -23 36 C-27.18473753 36 -29.15858219 38.20516281 -32 41 Z M-16 37 C-15.97679687 37.89203125 -15.95359375 38.7840625 -15.9296875 39.703125 C-15.90261719 41.45882812 -15.90261719 41.45882812 -15.875 43.25 C-15.85179687 44.41015625 -15.82859375 45.5703125 -15.8046875 46.765625 C-15.99216183 49.87019996 -16.28374651 51.45783613 -18 54 C-18.804375 54.61875 -19.60875 55.2375 -20.4375 55.875 C-25.39667212 59.9874842 -26.37775278 64.77752778 -27 71 C-23.63551128 70.71161525 -22.06210766 70.04879887 -19.375 67.9375 C-16.59546072 64.49964879 -15.35292748 61.12852095 -14 57 C-13.64679688 56.0925 -13.29359375 55.185 -12.9296875 54.25 C-10.04386978 47.32777887 -10.04386978 47.32777887 -10 40 C-12.04040776 37.95959224 -13.08325244 37 -16 37 Z M-35 63 C-35.33 64.98 -35.66 66.96 -36 69 C-35.01 69 -34.02 69 -33 69 C-33.33 67.02 -33.66 65.04 -34 63 C-34.33 63 -34.66 63 -35 63 Z " fill="#C9C3B3" transform="translate(150,44)"/>
<path d="M0 0 C1.74965358 -0.05429959 3.49979787 -0.09292823 5.25 -0.125 C6.22453125 -0.14820313 7.1990625 -0.17140625 8.203125 -0.1953125 C11.12811951 0.00894689 12.64843344 0.26233799 15 2 C17.7680954 7.64144158 17.33022693 13.22020821 17.3125 19.375 C17.32861328 20.48617187 17.34472656 21.59734375 17.36132812 22.7421875 C17.3649796 28.87666956 17.20147562 33.6767033 14 39 C11.02119115 39.99293628 8.98398802 40.13406411 5.875 40.125 C4.98554687 40.12757813 4.09609375 40.13015625 3.1796875 40.1328125 C1 40 1 40 0 39 C-0.1724462 36.62401107 -0.28387592 34.27419029 -0.3515625 31.89453125 C-0.37471527 31.17770676 -0.39786804 30.46088226 -0.42172241 29.72233582 C-0.46944767 28.19997446 -0.51467108 26.67753297 -0.55761719 25.1550293 C-0.62422748 22.83935617 -0.70218814 20.52426168 -0.78125 18.20898438 C-0.82621412 16.72918757 -0.87050594 15.24937015 -0.9140625 13.76953125 C-0.93796051 13.0818013 -0.96185852 12.39407135 -0.98648071 11.6855011 C-1.08980145 7.66132813 -0.79307862 3.9458535 0 0 Z M8 7 C8 15.58 8 24.16 8 33 C8.33 33 8.66 33 9 33 C9 24.42 9 15.84 9 7 C8.67 7 8.34 7 8 7 Z " fill="#C8C2B2" transform="translate(114,160)"/>
<path d="M0 0 C3.63 0 7.26 0 11 0 C12.13371584 8.17722698 13.19100894 16.35999049 14.125 24.5625 C14.21249512 25.31128418 14.29999023 26.06006836 14.39013672 26.83154297 C14.84504015 30.90370672 15.18974858 34.89510582 15 39 C14 40 14 40 11 40.125 C8 40 8 40 7 39 C6.95919217 37.00041636 6.95745644 34.99954746 7 33 C6.01 33 5.02 33 4 33 C4.020625 33.969375 4.04125 34.93875 4.0625 35.9375 C4 39 4 39 3 40 C0.66055264 39.71269945 -1.6739143 39.38063221 -4 39 C-3.86177801 35.85378318 -3.71314916 32.70814434 -3.5625 29.5625 C-3.52318359 28.66466797 -3.48386719 27.76683594 -3.44335938 26.84179688 C-3.40146484 25.98779297 -3.35957031 25.13378906 -3.31640625 24.25390625 C-3.27974854 23.46314697 -3.24309082 22.6723877 -3.20532227 21.85766602 C-3 20 -3 20 -2 19 C-1.77428816 17.58879098 -1.60611651 16.16823957 -1.46484375 14.74609375 C-1.37783203 13.89208984 -1.29082031 13.03808594 -1.20117188 12.15820312 C-1.11416016 11.26037109 -1.02714844 10.36253906 -0.9375 9.4375 C-0.84662109 8.53580078 -0.75574219 7.63410156 -0.66210938 6.70507812 C-0.43746371 4.47044491 -0.21823004 2.23526887 0 0 Z M5 22 C6 26 6 26 6 26 Z " fill="#C9C2B2" transform="translate(65,160)"/>
<path d="M0 0 C1.64574566 -0.02688151 3.29161413 -0.04634123 4.9375 -0.0625 C5.85402344 -0.07410156 6.77054688 -0.08570313 7.71484375 -0.09765625 C10 0 10 0 11 1 C11.68645374 5.45699377 12.0913018 9.95322625 12.5625 14.4375 C12.70107422 15.68466797 12.83964844 16.93183594 12.98242188 18.21679688 C13.72461654 25.17441484 14.21105532 32.0025474 14 39 C10.98968256 39.93423645 10.13349732 40.04449911 7 39 C6.87625 38.195625 6.7525 37.39125 6.625 36.5625 C6.41875 35.716875 6.2125 34.87125 6 34 C5.34 33.67 4.68 33.34 4 33 C4 35.31 4 37.62 4 40 C1.66705225 40.04241723 -0.66702567 40.04092937 -3 40 C-3.33 39.67 -3.66 39.34 -4 39 C-3.95908228 37.30978324 -3.83616787 35.62166294 -3.6875 33.9375 C-3.58824219 32.78507812 -3.48898438 31.63265625 -3.38671875 30.4453125 C-3.32661621 29.76629883 -3.26651367 29.08728516 -3.20458984 28.38769531 C-2.96132291 25.54861347 -2.74029884 22.70810639 -2.51953125 19.8671875 C-2.34653537 17.68227731 -2.17335697 15.49738157 -2 13.3125 C-1.91709717 12.23669678 -1.83419434 11.16089355 -1.7487793 10.05249023 C-1.66668213 9.04130127 -1.58458496 8.0301123 -1.5 6.98828125 C-1.4278125 6.07602783 -1.355625 5.16377441 -1.28125 4.22387695 C-1 2 -1 2 0 0 Z " fill="#C9C2B2" transform="translate(98,160)"/>
<path d="M0 0 C1.37478516 0.01740234 1.37478516 0.01740234 2.77734375 0.03515625 C3.69644531 0.04417969 4.61554688 0.05320313 5.5625 0.0625 C6.27277344 0.07410156 6.98304688 0.08570313 7.71484375 0.09765625 C8.22480745 4.53406916 8.72096552 8.97192619 9.21484375 13.41015625 C9.35792969 14.65345703 9.50101563 15.89675781 9.6484375 17.17773438 C11.26430793 31.83598758 11.26430793 31.83598758 10.71484375 39.09765625 C9.71484375 40.09765625 9.71484375 40.09765625 7.15234375 40.16015625 C6.34796875 40.13953125 5.54359375 40.11890625 4.71484375 40.09765625 C4.42609375 39.12828125 4.13734375 38.15890625 3.83984375 37.16015625 C3.07269693 33.99101422 3.07269693 33.99101422 0.71484375 33.09765625 C0.73546875 34.06703125 0.75609375 35.03640625 0.77734375 36.03515625 C0.71484375 39.09765625 0.71484375 39.09765625 -0.28515625 40.09765625 C-3.28515625 40.22265625 -3.28515625 40.22265625 -6.28515625 40.09765625 C-6.61515625 39.76765625 -6.94515625 39.43765625 -7.28515625 39.09765625 C-7.22950897 29.94367935 -5.94754968 20.78679198 -4.78515625 11.72265625 C-4.65463867 10.69382324 -4.52412109 9.66499023 -4.38964844 8.60498047 C-4.26235352 7.6460791 -4.13505859 6.68717773 -4.00390625 5.69921875 C-3.8327832 4.40491943 -3.8327832 4.40491943 -3.65820312 3.08447266 C-3.1263963 0.25211408 -2.91514511 0.12457885 0 0 Z M1.71484375 14.09765625 C1.71484375 16.07765625 1.71484375 18.05765625 1.71484375 20.09765625 C2.04484375 20.09765625 2.37484375 20.09765625 2.71484375 20.09765625 C2.71484375 18.11765625 2.71484375 16.13765625 2.71484375 14.09765625 C2.38484375 14.09765625 2.05484375 14.09765625 1.71484375 14.09765625 Z M1.71484375 21.09765625 C1.71484375 22.74765625 1.71484375 24.39765625 1.71484375 26.09765625 C2.04484375 26.09765625 2.37484375 26.09765625 2.71484375 26.09765625 C2.71484375 24.44765625 2.71484375 22.79765625 2.71484375 21.09765625 C2.38484375 21.09765625 2.05484375 21.09765625 1.71484375 21.09765625 Z " fill="#C8C2B2" transform="translate(171.28515625,159.90234375)"/>
<path d="M0 0 C4.51195048 1.33687422 4.51195048 1.33687422 6.375 4 C6.9682341 8.54134498 6.88996975 13.10319266 6.87597656 17.6784668 C6.87500457 19.9269225 6.91661356 22.17195948 6.9609375 24.41992188 C6.96614515 25.8515554 6.96883268 27.28320076 6.96875 28.71484375 C6.97583984 30.01542725 6.98292969 31.31601074 6.99023438 32.65600586 C6.375 36 6.375 36 3.99414062 38.42016602 C1.00370612 40.22395998 -0.21558311 40.7671188 -3.625 40 C-6.86510932 37.3909708 -8.44719172 35.89105434 -9.27197266 31.7578125 C-9.2776123 30.55898437 -9.28325195 29.36015625 -9.2890625 28.125 C-9.29550781 26.81015625 -9.30195313 25.4953125 -9.30859375 24.140625 C-9.29812012 23.46064453 -9.28764648 22.78066406 -9.27685547 22.08007812 C-9.25006008 20.00465319 -9.27662887 17.93463324 -9.30859375 15.859375 C-9.29892578 13.88710937 -9.29892578 13.88710937 -9.2890625 11.875 C-9.28342285 10.67617187 -9.2777832 9.47734375 -9.27197266 8.2421875 C-8.1922302 2.8312517 -5.56209192 0 0 0 Z M-1.625 8 C-1.625 15.92 -1.625 23.84 -1.625 32 C-1.295 32 -0.965 32 -0.625 32 C-0.625 24.08 -0.625 16.16 -0.625 8 C-0.955 8 -1.285 8 -1.625 8 Z " fill="#C8C2B2" transform="translate(207.625,160)"/>
<path d="M0 0 C1.91541138 -0.10841951 3.83259773 -0.18578079 5.75 -0.25 C6.81734375 -0.29640625 7.8846875 -0.3428125 8.984375 -0.390625 C12.67066803 0.0868741 13.74021434 1.12227296 16 4 C17.96684679 9.29374722 17.57264377 15.21844161 15.875 20.5 C14 23 14 23 10.8828125 23.65625 C9.93148437 23.7696875 8.98015625 23.883125 8 24 C8.01160156 25.07121094 8.02320313 26.14242187 8.03515625 27.24609375 C8.04453299 28.64322743 8.05363331 30.04036299 8.0625 31.4375 C8.07087891 32.14455078 8.07925781 32.85160156 8.08789062 33.58007812 C8.09653588 35.38693559 8.05220011 37.19387603 8 39 C7 40 7 40 4 40.125 C1 40 1 40 0 39 C-0.08865208 36.1156618 -0.11521296 33.25537842 -0.09765625 30.37109375 C-0.0962413 29.50686295 -0.09482635 28.64263214 -0.09336853 27.75221252 C-0.08775239 24.98060708 -0.07519719 22.2090812 -0.0625 19.4375 C-0.05748708 17.5631522 -0.05292381 15.68880315 -0.04882812 13.81445312 C-0.03777772 9.20960456 -0.0205023 4.60481579 0 0 Z M8 7 C8 10.3 8 13.6 8 17 C8.33 17 8.66 17 9 17 C9 13.7 9 10.4 9 7 C8.67 7 8.34 7 8 7 Z " fill="#C8C2B2" transform="translate(28,160)"/>
<path d="M0 0 C9.52721545 -0.75083134 9.52721545 -0.75083134 14.1875 1.625 C17.16780619 7.17453567 16.93125469 12.85518562 16 19 C14.60039898 21.75662863 13.72000503 22.35534579 11 24 C10.01 24 9.02 24 8 24 C8.01160156 25.07121094 8.02320313 26.14242187 8.03515625 27.24609375 C8.04453299 28.64322743 8.05363331 30.04036299 8.0625 31.4375 C8.07087891 32.14455078 8.07925781 32.85160156 8.08789062 33.58007812 C8.09653588 35.38693559 8.05220011 37.19387603 8 39 C7 40 7 40 3.4375 40.0625 C2.303125 40.041875 1.16875 40.02125 0 40 C-1.04424222 31.82684219 -1.15061641 23.73140527 -1.125 15.5 C-1.12886719 14.22640625 -1.13273438 12.9528125 -1.13671875 11.640625 C-1.13542969 10.42890625 -1.13414062 9.2171875 -1.1328125 7.96875 C-1.13168457 6.86982422 -1.13055664 5.77089844 -1.12939453 4.63867188 C-1 2 -1 2 0 0 Z " fill="#C9C2B2" transform="translate(149,160)"/>
<path d="M0 0 C4.29 0 8.58 0 13 0 C13 2.64 13 5.28 13 8 C11.02 8 9.04 8 7 8 C7 10.64 7 13.28 7 16 C8.32 16 9.64 16 11 16 C11 18.31 11 20.62 11 23 C9.68 23.33 8.36 23.66 7 24 C7 26.64 7 29.28 7 32 C8.98 32 10.96 32 13 32 C13.04241723 34.33294775 13.04092937 36.66702567 13 39 C11.25895647 40.74104353 8.92635979 40.21311272 6.5625 40.25 C5.07943359 40.28867188 5.07943359 40.28867188 3.56640625 40.328125 C2.71949219 40.21984375 1.87257812 40.1115625 1 40 C-1.57867841 36.13198238 -1.15753069 33.07530474 -0.9765625 28.61328125 C-0.95153656 27.79627243 -0.92651062 26.97926361 -0.90072632 26.13749695 C-0.81857276 23.52873963 -0.72196612 20.92074468 -0.625 18.3125 C-0.56675563 16.54365091 -0.50945245 14.77477055 -0.453125 13.00585938 C-0.31300101 8.67013466 -0.15991319 4.33503812 0 0 Z " fill="#C8C2B2" transform="translate(133,160)"/>
<path d="M0 0 C1.39456452 0.00667256 2.78911118 0.01863093 4.18359375 0.03515625 C4.89451172 0.03966797 5.60542969 0.04417969 6.33789062 0.04882812 C8.09899388 0.06064761 9.86005411 0.07858362 11.62109375 0.09765625 C11.62109375 2.73765625 11.62109375 5.37765625 11.62109375 8.09765625 C10.63109375 8.42765625 9.64109375 8.75765625 8.62109375 9.09765625 C8.5960376 10.0012085 8.57098145 10.90476074 8.54516602 11.83569336 C8.45022058 15.17729905 8.35097754 18.51871877 8.2487793 21.86010742 C8.20537745 23.30829865 8.16370631 24.75654279 8.1237793 26.20483398 C8.06620313 28.28255184 8.00247347 30.36000198 7.9375 32.4375 C7.88251343 34.31489868 7.88251343 34.31489868 7.82641602 36.23022461 C7.62109375 39.09765625 7.62109375 39.09765625 6.62109375 40.09765625 C4.62151011 40.13846408 2.62064121 40.14019981 0.62109375 40.09765625 C-0.8398947 37.17567935 -0.49025526 34.5987215 -0.4765625 31.33984375 C-0.47444008 30.34526657 -0.47444008 30.34526657 -0.47227478 29.33059692 C-0.46667379 27.21123762 -0.45412125 25.09198366 -0.44140625 22.97265625 C-0.43639137 21.53645986 -0.43182844 20.10026181 -0.42773438 18.6640625 C-0.41670407 15.1418928 -0.39943884 11.6197848 -0.37890625 8.09765625 C-1.69890625 8.09765625 -3.01890625 8.09765625 -4.37890625 8.09765625 C-4.42132348 5.7647085 -4.41983562 3.43063058 -4.37890625 1.09765625 C-3.37890625 0.09765625 -3.37890625 0.09765625 0 0 Z " fill="#CAC4B3" transform="translate(83.37890625,159.90234375)"/>
<path d="M0 0 C2.64 0 5.28 0 8 0 C8 10.56 8 21.12 8 32 C9.98 32 11.96 32 14 32 C14.04241723 34.33294775 14.04092937 36.66702567 14 39 C13 40 13 40 10.27734375 40.09765625 C9.17519531 40.08605469 8.07304688 40.07445312 6.9375 40.0625 C5.28041016 40.04896484 5.28041016 40.04896484 3.58984375 40.03515625 C2.73519531 40.02355469 1.88054688 40.01195312 1 40 C-0.70174396 34.89186412 -1.22990634 30.49327782 -0.9765625 25.09765625 C-0.93902359 24.01380898 -0.93902359 24.01380898 -0.90072632 22.9080658 C-0.81929136 20.62567738 -0.7224141 18.3442565 -0.625 16.0625 C-0.56668185 14.50459538 -0.50938041 12.94665235 -0.453125 11.38867188 C-0.31382856 7.5919028 -0.16069072 3.79592133 0 0 Z " fill="#CAC4B3" transform="translate(46,160)"/>
<path d="M0 0 C2.31 0 4.62 0 7 0 C7 10.56 7 21.12 7 32 C8.98 32 10.96 32 13 32 C13 34.31 13 36.62 13 39 C10.37670316 40.31164842 8.36301375 40.13262846 5.4375 40.125 C4.44621094 40.12757813 3.45492187 40.13015625 2.43359375 40.1328125 C0 40 0 40 -1 39 C-1.10103255 36.20006403 -1.13970088 33.42531356 -1.1328125 30.625 C-1.13376923 29.78533691 -1.13472595 28.94567383 -1.13571167 28.08056641 C-1.13639348 26.30175705 -1.13453917 24.52294523 -1.13037109 22.74414062 C-1.12502283 20.01166224 -1.13031605 17.27934824 -1.13671875 14.546875 C-1.13605797 12.8229163 -1.13477681 11.09895771 -1.1328125 9.375 C-1.13483673 8.55209473 -1.13686096 7.72918945 -1.13894653 6.88134766 C-1.11495054 1.11495054 -1.11495054 1.11495054 0 0 Z " fill="#C9C3B3" transform="translate(185,160)"/>
<path d="M0 0 C3.63 0 7.26 0 11 0 C11 0.33 11 0.66 11 1 C8.03 1 5.06 1 2 1 C2 13.54 2 26.08 2 39 C4.97 39 7.94 39 11 39 C11 39.33 11 39.66 11 40 C9.35425434 40.02688151 7.70838587 40.04634123 6.0625 40.0625 C5.14597656 40.07410156 4.22945313 40.08570313 3.28515625 40.09765625 C1 40 1 40 0 39 C-0.1724462 36.62401107 -0.28387592 34.27419029 -0.3515625 31.89453125 C-0.37471527 31.17770676 -0.39786804 30.46088226 -0.42172241 29.72233582 C-0.46944767 28.19997446 -0.51467108 26.67753297 -0.55761719 25.1550293 C-0.62422748 22.83935617 -0.70218814 20.52426168 -0.78125 18.20898438 C-0.82621412 16.72918757 -0.87050594 15.24937015 -0.9140625 13.76953125 C-0.93796051 13.0818013 -0.96185852 12.39407135 -0.98648071 11.6855011 C-1.08980145 7.66132813 -0.79307862 3.9458535 0 0 Z " fill="#D1CAB9" transform="translate(114,160)"/>
<path d="M0 0 C0.33 0 0.66 0 1 0 C1 2.97 1 5.94 1 9 C1.66 9 2.32 9 3 9 C3.33 8.01 3.66 7.02 4 6 C4.33 6.66 4.66 7.32 5 8 C4.67 8.66 4.34 9.32 4 10 C3.9283265 12.55157655 3.90691558 15.07472971 3.9375 17.625 C3.94426758 18.68460938 3.94426758 18.68460938 3.95117188 19.765625 C3.96296125 21.51045275 3.98089676 23.255237 4 25 C1.525 24.01 1.525 24.01 -1 23 C-0.67 15.41 -0.34 7.82 0 0 Z M1 16 C0.67 17.98 0.34 19.96 0 22 C0.99 22 1.98 22 3 22 C2.67 20.02 2.34 18.04 2 16 C1.67 16 1.34 16 1 16 Z " fill="#D1CBBA" transform="translate(114,91)"/>
<path d="M0 0 C0.66 0.33 1.32 0.66 2 1 C0.515 2.485 0.515 2.485 -1 4 C0.65 4.33 2.3 4.66 4 5 C3.67 7.64 3.34 10.28 3 13 C2.67 13 2.34 13 2 13 C2 10.69 2 8.38 2 6 C0.576875 6.7115625 0.576875 6.7115625 -0.875 7.4375 C-2.58333333 8.29166667 -4.29166667 9.14583333 -6 10 C-5.00475043 5.35550201 -4.03925611 2.69283741 0 0 Z " fill="#CEC8B7" transform="translate(125,74)"/>
<path d="" fill="#D8D2C0" transform="translate(0,0)"/>
<path d="" fill="#D8D2C0" transform="translate(0,0)"/>
</svg>
