<?xml version="1.0" encoding="UTF-8"?>
<svg version="1.1" xmlns="http://www.w3.org/2000/svg" width="373" height="373">
<path d="M0 0 C1.24716797 1.06541016 1.24716797 1.06541016 2.51953125 2.15234375 C29.8520526 26.04205903 42.01917874 57.54216848 45.28125 93.0625 C45.98350158 111.78920886 40.78497982 132.82140502 32.0390625 149.30078125 C30.31150438 153.78853562 32.01023368 157.11065136 33.5625 161.4375 C36.76380926 172.10324819 35.79804966 182.99728631 31 193 C25.00440176 203.41631584 16.66347306 210.57835138 5.18359375 214.33984375 C-5.42202528 216.53904573 -16.25261446 215.97356352 -26 211 C-26.33 210.67 -26.66 210.34 -27 210 C-31.72993509 209.63188464 -35.06477002 210.56649828 -39.4375 212.3125 C-46.86969369 215.08582386 -54.15642903 216.70331717 -62 218 C-62.77472656 218.13277344 -63.54945313 218.26554688 -64.34765625 218.40234375 C-94.29866797 222.61510648 -127.02024297 214.18128329 -151.29199219 196.26293945 C-153.92344932 194.24327659 -156.46431012 192.13959413 -159 190 C-160.33998047 188.87078125 -160.33998047 188.87078125 -161.70703125 187.71875 C-182.23046709 169.81197341 -194.3835636 147.149144 -201 121 C-201.17934082 120.29343262 -201.35868164 119.58686523 -201.54345703 118.85888672 C-205.62747525 102.08886157 -206.31946619 83.1437418 -198.6796875 67.25390625 C-193.68214971 59.15680267 -186.24396386 52.60473101 -177 50 C-165.71363404 48.09323507 -157.02852569 49.04852083 -147.359375 55.234375 C-139.13172666 61.39148932 -134.11233807 69.77888688 -132.29296875 79.83984375 C-131.90445072 84.03065819 -131.99437804 88.17031585 -132.0625 92.375 C-132.25484345 107.17396253 -128.41095019 121.17775603 -117.96484375 132.1953125 C-110.83357646 138.74530353 -103.0210434 142.63648382 -94 146 C-93.67 145.67 -93.34 145.34 -93 145 C-93.61875 143.865625 -94.2375 142.73125 -94.875 141.5625 C-100.44657809 130.30079961 -100.22332439 118.79708466 -96.26953125 107.01953125 C-94.4660405 102.72999786 -92.12914506 99.41509826 -89 96 C-88.21625 95.13375 -87.4325 94.2675 -86.625 93.375 C-77.16775663 84.81844647 -67.58434517 80.52591213 -54.62109375 80.72265625 C-44.00501959 81.84596663 -34.37315748 86.28337245 -27 94 C-26.53282744 79.85904608 -32.52479583 67.16721049 -41.9609375 56.87890625 C-52.30801938 47.3445262 -64.7516276 42.80362004 -78.5625 42.8125 C-79.46347412 42.81113037 -80.36444824 42.80976074 -81.29272461 42.80834961 C-86.00737581 42.84278795 -90.43483092 43.06701305 -95.0625 44.0625 C-106.58513892 46.52138089 -115.10520076 42.85833799 -124.87890625 36.84375 C-131.11308097 32.2861288 -135.00581816 24.28192192 -137 17 C-138.4422782 5.25755806 -136.69033036 -3.21300245 -130 -13 C-120.74725 -23.98883299 -106.84195338 -26.98941636 -93.1875 -28.6875 C-59.38463273 -31.3430444 -25.87161693 -22.53610268 0 0 Z " fill="#CCC6B6" transform="translate(262,97)"/>
</svg>
